<svg id="Layer_1" enable-background="new 0 0 256 256" height="512" viewBox="0 0 256 256" width="512" xmlns="http://www.w3.org/2000/svg"><g><path d="m210.004 139.615c-4.698 0-8.514 3.816-8.514 8.523l-.306 27.664c0 1.937-.791 3.812-2.139 5.161l-26.581 26.59c-3.266 3.266-8.846 3.502-12.164.297-3.44-3.318-3.467-8.802-.105-12.173l10.784-10.784c2.995-2.995 3.17-7.885.236-10.942-3.021-3.179-8.034-3.196-11.09-.131l-22.8 22.782c-7.047 7.056-9.326 14.74-9.326 23.603v29.663h41.74v-11.221l45.739-45.74c1.755-1.746 2.742-4.122 2.742-6.61l.306-38.16c.001-4.706-3.815-8.513-8.522-8.522z" fill="#ffb69f"/><path d="m162.754 245.383c-1.381 0-2.5-1.119-2.5-2.5v-7.13c0-.663.264-1.299.732-1.768l47.748-47.748.211-26.12c.011-1.373 1.128-2.479 2.5-2.479h.021c1.38.011 2.49 1.14 2.479 2.52l-.209 26.104c0 1.318-.505 2.557-1.423 3.468l-47.06 47.06v6.095c.001 1.379-1.118 2.498-2.499 2.498zm48.771-92.745c-.006 0-.013 0-.02 0-1.381-.011-2.491-1.139-2.48-2.52l.016-2c.011-1.374 1.128-2.48 2.5-2.48h.02c1.381.011 2.491 1.139 2.48 2.52l-.016 2c-.01 1.373-1.128 2.48-2.5 2.48z" fill="#fbe0e2"/><path d="m118.674 196.602-22.8-22.782c-3.056-3.065-8.069-3.048-11.09.131-2.934 3.056-2.759 7.946.236 10.942l10.784 10.784c3.362 3.371 3.336 8.855-.105 12.173-3.318 3.205-8.898 2.969-12.164-.297l-26.581-26.59c-1.347-1.347-2.139-3.22-2.139-5.161l-.306-27.664c0-4.707-3.816-8.523-8.514-8.523-4.707.009-8.523 3.816-8.523 8.523l.306 38.16c0 2.489.987 4.864 2.742 6.61l45.739 45.74v11.221h41.741c0-17.407 0-12.245 0-29.663 0-8.864-2.279-16.549-9.326-23.604z" fill="#ffb69f"/><path d="m121.015 241.82c-1.381 0-2.5-1.119-2.5-2.5v-19.115c0-7.344-1.896-12.239-6.547-16.896l-22.808-22.788c-.978-.976-.978-2.559-.002-3.535.977-.979 2.561-.977 3.535-.002l22.81 22.79c5.542 5.549 8.012 11.849 8.012 20.431v19.115c0 1.381-1.119 2.5-2.5 2.5z" fill="#fbe0e2"/><path d="m128 13.878 20.875 17.599 27.206 2.316 2.316 27.206 17.599 20.875-17.599 20.875-2.316 27.205-27.206 2.317-20.875 17.599-20.875-17.599-27.206-2.317-2.316-27.205-17.599-20.875 17.599-20.875 2.316-27.206 27.206-2.316z" fill="#f0c020"/><path d="m126.389 138.319-16.135-13.603-21.027-1.79c-1.214-.104-2.176-1.065-2.279-2.279l-1.271-14.918c-.117-1.376.903-2.586 2.279-2.703 1.368-.115 2.585.903 2.703 2.279l1.092 12.817 19.719 1.679c.516.044 1.004.247 1.399.58l15.131 12.758 15.131-12.757c.396-.333.884-.536 1.399-.58l19.72-1.679.052-.615c.117-1.376 1.319-2.397 2.703-2.279 1.376.117 2.396 1.328 2.279 2.703l-.231 2.716c-.104 1.214-1.066 2.176-2.279 2.279l-21.027 1.79-16.135 13.603c-.932.785-2.292.785-3.223-.001zm41.04-28.072c-1.376-.117-2.396-1.328-2.279-2.703l.255-2.989c.118-1.377 1.33-2.387 2.703-2.279 1.376.117 2.396 1.328 2.279 2.703l-.255 2.989c-.116 1.353-1.3 2.393-2.703 2.279z" fill="#f9e5af"/><path d="m87.896 61.431c-1.376-.117-2.396-1.328-2.279-2.703l.17-1.993c.117-1.376 1.328-2.397 2.703-2.279 1.376.117 2.396 1.328 2.279 2.703l-.17 1.993c-.115 1.353-1.299 2.392-2.703 2.279zm77.451-2.915-1.098-12.892-19.719-1.679c-.516-.044-1.004-.246-1.399-.58l-15.131-12.756-15.131 12.756c-.396.334-.884.536-1.399.58l-19.719 1.679-.134 1.57c-.117 1.376-1.327 2.389-2.703 2.279-1.376-.117-2.396-1.327-2.279-2.703l.313-3.671c.104-1.214 1.065-2.176 2.279-2.279l21.027-1.79 16.135-13.602c.932-.785 2.291-.785 3.223 0l16.135 13.602 21.027 1.79c1.214.104 2.176 1.065 2.279 2.279l1.276 14.992c.117 1.376-.903 2.586-2.279 2.703-1.406.115-2.588-.927-2.703-2.278z" fill="#f9e5af"/><path d="m163.14 75.961-35.14 42.243-35.14-42.243 14.075-19.361h42.13z" fill="#72c1e8"/><path d="m169.74 252.37c1.38 0 2.5-1.12 2.5-2.5v-10.19l45.01-45c2.21-2.2 3.47-5.26 3.47-8.38l.311-38.14c0-6.08-4.95-11.03-11.021-11.04-6.06 0-11 4.93-11.02 10.989l-.301 27.66v.03c0 1.25-.529 2.52-1.409 3.39l-5.25 5.25c-.97.97-.979 2.553 0 3.53.949.95 2.6.95 3.539 0l5.24-5.24c1.82-1.819 2.86-4.34 2.87-6.899l.311-27.67v-.021c.01-3.31 2.71-6.02 6.02-6.03 3.32.011 6.021 2.721 6.021 6.03l-.311 38.14c0 1.851-.71 3.57-2 4.86l-45.75 45.74c-.46.46-.729 1.11-.729 1.77v11.221c-.001 1.38 1.118 2.5 2.499 2.5z"/><path d="m184.96 191.51c-.97.98-.97 2.56 0 3.54 1.011.99 2.584.956 3.54 0 1.003-1.026.944-2.596 0-3.54-.94-.941-2.59-.941-3.54 0z"/><path d="m158.43 193.91c-4.486 4.486-4.171 11.58.13 15.739 4.341 4.167 11.443 3.879 15.67-.33l7.2-7.199c.98-.98.97-2.561 0-3.54-.939-.94-2.58-.94-3.53 0 0 0 0 0-.01 0l-7.189 7.21c-2.279 2.279-6.324 2.528-8.66.26-2.447-2.343-2.453-6.238-.08-8.61l10.79-10.779c3.976-3.997 4.128-10.434.27-14.44-3.89-4.092-10.545-4.327-14.67-.16l-22.79 22.771c-3.422 3.403-5.896 7.086-7.561 11.236-1.672-4.15-4.137-7.833-7.559-11.236l-22.8-22.78c-4.116-4.116-10.767-3.966-14.67.18-3.926 4.079-3.597 10.534.28 14.431l10.79 10.779c2.33 2.352 2.392 6.2-.08 8.61-2.317 2.25-6.358 2.042-8.66-.26l-26.58-26.601c-.88-.87-1.41-2.14-1.4-3.39l-.31-27.69c-.02-6.06-4.96-10.989-11.01-10.989-6.08.01-11.021 4.949-11.03 11.02l.311 38.18c0 3.11 1.27 6.16 3.479 8.36l45 45v10.16c0 1.38 1.12 2.5 2.5 2.5s2.5-1.12 2.5-2.5v-11.19c0-.67-.26-1.3-.729-1.77l-45.74-45.74c-1.3-1.29-2.01-3.01-2.01-4.84l-.311-38.18c0-3.301 2.7-6 6.03-6.011 3.31.011 6 2.721 6.01 6.03l.31 27.69c.011 2.6 1.021 5.05 2.86 6.899l26.59 26.59c4.292 4.273 11.379 4.449 15.67.33 4.354-4.209 4.555-11.304.141-15.739l-10.79-10.79c-2.028-2.009-2.213-5.34-.2-7.44 2.096-2.201 5.477-2.142 7.51-.09l22.811 22.78c5.97 6.04 8.54 12.569 8.59 21.84v29.66c0 1.38 1.12 2.5 2.5 2.5s2.5-1.12 2.5-2.5v-29.66c.05-9.271 2.62-15.8 8.59-21.84l22.8-22.78c2.038-2.058 5.427-2.107 7.51.08 2.06 2.146 1.781 5.477-.189 7.45z"/><path d="m77.429 33.581-2.249 26.414-17.087 20.268c-.785.931-.785 2.292 0 3.223l17.087 20.268 2.249 26.413c.104 1.214 1.065 2.176 2.279 2.279l26.413 2.249 20.268 17.087c.932.785 2.291.785 3.223 0l20.268-17.087 26.414-2.249c1.214-.104 2.176-1.065 2.279-2.279l2.249-26.413 17.086-20.268c.785-.931.785-2.292 0-3.223l-17.086-20.268-2.249-26.414c-.104-1.214-1.065-2.176-2.279-2.279l-26.414-2.249-20.268-17.086c-.932-.785-2.291-.785-3.223 0l-20.268 17.086-26.413 2.249c-1.214.103-2.176 1.065-2.279 2.279zm4.803 2.524 25.104-2.138c.516-.044 1.004-.247 1.399-.58l19.265-16.24 19.264 16.24c.396.334.884.536 1.399.58l25.105 2.138 2.138 25.105c.044.516.246 1.004.58 1.399l16.24 19.264-16.24 19.264c-.333.396-.536.884-.58 1.399l-2.138 25.104-25.105 2.138c-.516.044-1.004.247-1.399.58l-19.264 16.243-19.264-16.241c-.396-.333-.884-.536-1.399-.58l-25.104-2.138-2.138-25.104c-.044-.516-.247-1.004-.58-1.399l-16.242-19.265 16.242-19.264c.333-.396.536-.884.58-1.399z"/><path d="m157.166 19.295 5.155-12.189c.538-1.271-.058-2.738-1.329-3.276-1.268-.534-2.738.056-3.276 1.329l-5.155 12.189c-.538 1.271.058 2.738 1.329 3.276 1.288.543 2.744-.071 3.276-1.329z"/><path d="m98.834 144.452-5.155 12.189c-.538 1.271.058 2.738 1.329 3.276 1.288.543 2.745-.071 3.276-1.329l5.155-12.189c.538-1.271-.058-2.738-1.329-3.276-1.267-.534-2.738.057-3.276 1.329z"/><path d="m153.89 143.123c-1.271.538-1.867 2.005-1.329 3.276l5.155 12.189c.534 1.263 1.992 1.87 3.276 1.329 1.271-.538 1.867-2.005 1.329-3.276l-5.155-12.189c-.538-1.273-2.008-1.865-3.276-1.329z"/><path d="m102.11 20.624c1.271-.538 1.867-2.005 1.329-3.276l-5.155-12.19c-.538-1.273-2.01-1.865-3.276-1.329-1.271.538-1.867 2.005-1.329 3.276l5.155 12.189c.534 1.264 1.992 1.871 3.276 1.33z"/><path d="m190.646 110.519c12.676 5.255 12.341 5.247 13.15 5.247.98 0 1.911-.581 2.311-1.544.528-1.275-.077-2.737-1.353-3.267l-12.194-5.056c-1.273-.528-2.737.076-3.267 1.353-.527 1.275.078 2.737 1.353 3.267z"/><path d="m65.364 53.229-12.205-5.056c-1.276-.529-2.738.077-3.267 1.353-.528 1.276.077 2.738 1.353 3.267 12.688 5.256 12.354 5.247 13.161 5.247.981 0 1.912-.582 2.311-1.544.528-1.277-.077-2.739-1.353-3.267z"/><path d="m206.107 49.525c-.528-1.275-1.988-1.886-3.267-1.353l-12.205 5.056c-1.275.528-1.881 1.99-1.353 3.267.526 1.271 1.985 1.883 3.267 1.353l12.205-5.056c1.276-.528 1.882-1.99 1.353-3.267z"/><path d="m49.893 114.222c.53 1.278 1.995 1.881 3.267 1.353l12.194-5.056c1.275-.529 1.881-1.991 1.353-3.267-.529-1.276-1.995-1.881-3.267-1.353l-12.194 5.056c-1.276.529-1.882 1.991-1.353 3.267z"/><path d="m90.939 77.56 35.036 42.114c.938 1.288 2.897 1.384 3.945.126.214-.258 35.016-42.082 35.217-42.351.696-.933.635-2.144.024-2.959l-14.07-19.36c-.48-.65-1.22-1.03-2.03-1.03-4.977 0-37.045 0-42.12 0-.8 0-1.56.38-2.029 1.03-.148.203-13.945 19.185-14.088 19.39-.669.942-.599 2.188.115 3.04zm7.245.9h13.722l9.407 27.794zm29.816 31.95-10.817-31.95h21.633zm6.688-4.157 9.407-27.793h13.721zm13.102-47.153 10.444 14.36h-14.113l-4.606-14.36zm-26.061 0h12.54l4.605 14.36h-21.75zm-13.519 0h8.273l-4.614 14.36h-14.104z"/></g></svg>