<svg id="Layer_1" enable-background="new 0 0 512 512" viewBox="0 0 512 512" xmlns="http://www.w3.org/2000/svg"><g clip-rule="evenodd" fill-rule="evenodd"><g><g><path d="m354.259 171.377c15.625 3.719 30.549 9.914 44.226 18.335l28.739-12.764 33.872 33.872-12.76 28.73c8.425 13.679 14.62 28.609 18.339 44.239l29.32 11.285v47.901l-29.328 11.288c-3.719 15.626-9.914 30.55-18.335 44.227l12.764 28.739-33.871 33.872-28.73-12.76c-13.679 8.424-28.609 14.62-44.238 18.338l-11.286 29.321h-47.901l-11.289-29.327c-15.626-3.719-30.549-9.914-44.226-18.335l-28.739 12.764-33.872-33.872 12.761-28.73c-8.425-13.679-14.619-28.61-18.339-44.239l-29.32-11.286v-47.901l29.324-11.288c3.719-15.627 9.914-30.553 18.337-44.23l-12.763-28.736 33.871-33.873 28.739 12.764c13.677-8.421 28.601-14.616 44.226-18.335l11.289-29.327h47.9z" fill="#ffe177"/><path d="m239.555 448.338-28.739 12.764-4.425-4.425 26.945-11.967c2.045 1.259 4.119 2.469 6.219 3.628zm114.704-276.961c15.625 3.719 30.549 9.914 44.226 18.335l-8.169 3.628c-13.677-8.421-34.82-18.244-50.446-21.963l-11.288-29.327h14.388zm44.236 276.964c-13.679 8.424-28.609 14.62-44.238 18.338l-11.286 29.321h-14.388l11.286-29.32c15.629-3.718 36.778-13.542 50.457-21.966zm-192.105-266.967 4.425-4.425 28.739 12.764c-2.1 1.159-4.174 2.368-6.219 3.628zm210.871 0 9.963-4.425 33.872 33.872-12.76 28.73c8.425 13.679 14.62 28.609 18.339 44.239l29.32 11.285v47.901l-29.328 11.288c-3.719 15.626-9.914 30.55-18.335 44.227l12.764 28.739-33.871 33.872-9.964-4.425 29.447-29.447-12.764-28.739c8.421-13.677 14.616-28.601 18.335-44.227l29.328-11.288v-47.901l-29.321-11.285c-3.719-15.63-9.914-30.56-18.338-44.239l12.76-28.73z" fill="#ffd064"/><ellipse cx="319.02" cy="319.025" fill="#eceff1" rx="110.815" ry="110.815" transform="matrix(.707 -.707 .707 .707 -132.146 319.022)"/><path d="m319.019 208.21c-61.205 0-110.814 49.609-110.814 110.816 0 61.206 49.609 110.814 110.814 110.814 2.967 0 5.907-.12 8.814-.349-57.083-4.491-102-52.227-102-110.465 0-58.24 44.917-105.975 102-110.467-2.907-.229-5.846-.349-8.814-.349z" fill="#d1d1d6"/></g><g><path d="m255.186 321.847c9.416 0 17.05 7.634 17.05 17.05s-7.633 17.05-17.05 17.05c-9.416 0-17.05-7.634-17.05-17.05s7.633-17.05 17.05-17.05zm127.669-53.503c9.416 0 17.05 7.634 17.05 17.05 0 9.417-7.633 17.05-17.05 17.05s-17.05-7.634-17.05-17.05 7.634-17.05 17.05-17.05zm-45.349 67.261c9.416 0 17.05 7.634 17.05 17.05s-7.634 17.05-17.05 17.05-17.05-7.634-17.05-17.05 7.634-17.05 17.05-17.05zm-35.167-60.911c9.416 0 17.05 7.634 17.05 17.05s-7.634 17.05-17.05 17.05-17.05-7.634-17.05-17.05 7.634-17.05 17.05-17.05z" fill="#8ac9fe"/><path d="m255.186 321.847c9.416 0 17.05 7.634 17.05 17.05s-7.633 17.05-17.05 17.05c-.938 0-1.857-.077-2.754-.223 8.107-1.317 14.296-8.349 14.296-16.828 0-8.478-6.189-15.511-14.296-16.827.896-.145 1.816-.222 2.754-.222zm127.669-53.503c9.416 0 17.05 7.634 17.05 17.05 0 9.417-7.633 17.05-17.05 17.05-.938 0-1.857-.077-2.754-.223 8.107-1.317 14.296-8.349 14.296-16.828 0-8.478-6.189-15.511-14.296-16.827.897-.145 1.817-.222 2.754-.222zm-45.349 67.261c9.416 0 17.05 7.634 17.05 17.05s-7.634 17.05-17.05 17.05c-.938 0-1.857-.077-2.754-.223 8.107-1.317 14.296-8.349 14.296-16.827 0-8.479-6.189-15.511-14.296-16.828.897-.145 1.817-.222 2.754-.222zm-35.167-60.911c9.416 0 17.05 7.634 17.05 17.05s-7.634 17.05-17.05 17.05c-.938 0-1.857-.077-2.754-.223 8.107-1.317 14.296-8.349 14.296-16.828 0-8.478-6.189-15.511-14.296-16.827.897-.145 1.816-.222 2.754-.222z" fill="#60b7ff"/></g><g><ellipse cx="150.881" cy="86.357" fill="#8ac9fe" rx="134.885" ry="70.357"/><path d="m150.881 16c55.831 0 105.155 27.825 134.885 70.357-29.73 42.532-79.055 70.357-134.885 70.357-1.673 0-3.34-.026-5-.076 53.768-1.606 101.046-29.024 129.885-70.281-28.839-41.257-76.117-68.675-129.885-70.281 1.66-.05 3.327-.076 5-.076z" fill="#60b7ff"/><ellipse cx="150.881" cy="86.356" fill="#eceff1" rx="47.187" ry="47.187" transform="matrix(.973 -.23 .23 .973 -15.804 36.975)"/><path d="m150.881 39.17c1.689 0 3.357.09 5 .264-23.709 2.497-42.186 22.552-42.186 46.923s18.477 44.426 42.186 46.923c-1.643.173-3.311.264-5 .264-26.06 0-47.186-21.127-47.186-47.187-.001-26.061 21.126-47.187 47.186-47.187z" fill="#d1d1d6"/><circle cx="150.881" cy="86.356" fill="#8ac9fe" r="15.85"/><path d="m150.881 70.506c.851 0 1.686.068 2.5.197-7.566 1.199-13.35 7.751-13.35 15.653 0 7.903 5.784 14.454 13.35 15.653-.814.129-1.649.197-2.5.197-8.754 0-15.85-7.096-15.85-15.85-.001-8.753 7.096-15.85 15.85-15.85z" fill="#60b7ff"/></g></g><path d="m391.929 285.392c0 4.989-4.095 9.047-9.085 9.047-4.989 0-9.037-4.057-9.037-9.047 0-4.994 4.048-9.051 9.037-9.051 4.99 0 9.085 4.057 9.085 9.051zm-54.412 76.317c-4.989 0-9.037-4.057-9.037-9.051 0-4.989 4.048-9.047 9.037-9.047s9.037 4.057 9.037 9.047c0 4.994-4.047 9.051-9.037 9.051zm-44.245-69.967c0-4.989 4.095-9.051 9.085-9.051 4.989 0 9.037 4.062 9.037 9.051s-4.048 9.047-9.037 9.047c-4.989-.001-9.085-4.058-9.085-9.047zm-38.078 56.209c-4.989 0-9.037-4.062-9.037-9.051s4.048-9.051 9.037-9.051 9.037 4.062 9.037 9.051-4.048 9.051-9.037 9.051zm102.61-62.559c0 5.71 1.93 10.977 5.177 15.199l-18.828 27.912c-2.118-.584-4.331-.894-6.637-.894-1.695 0-3.342.169-4.942.49l-11.438-19.807c3.86-4.42 6.26-10.209 6.26-16.55 0-13.81-11.249-25.05-25.04-25.05-13.838 0-25.088 11.24-25.088 25.05 0 3.996.988 7.771 2.636 11.127l-13.603 13.589c-3.342-1.666-7.107-2.608-11.108-2.608-13.791 0-25.04 11.231-25.04 25.05 0 13.81 11.249 25.05 25.04 25.05s25.041-11.24 25.041-25.05c0-4.001-.941-7.771-2.589-11.132l13.556-13.589c3.389 1.671 7.155 2.612 11.155 2.612 1.694 0 3.342-.169 4.942-.494l11.438 19.811c-3.907 4.42-6.26 10.209-6.26 16.549 0 13.81 11.203 25.05 25.041 25.05 13.791 0 25.041-11.24 25.041-25.05 0-5.719-1.93-10.976-5.131-15.198l18.781-27.912c2.118.584 4.33.89 6.636.89 13.838 0 25.088-11.226 25.088-25.046 0-13.81-11.249-25.05-25.088-25.05-13.791.001-25.04 11.241-25.04 25.051zm-38.785 136.448c56.718 0 102.798-46.118 102.798-102.813 0-56.699-46.08-102.817-102.798-102.817-56.671 0-102.798 46.118-102.798 102.817 0 56.695 46.127 102.813 102.798 102.813zm0-221.628c-65.52 0-118.802 53.301-118.802 118.816 0 65.51 53.282 118.811 118.802 118.811s118.802-53.301 118.802-118.811c0-65.516-53.282-118.816-118.802-118.816zm168.977 137.266v-36.907l-24.193-9.324c-2.447-.937-4.283-3.036-4.895-5.606-3.53-14.812-9.367-28.9-17.368-41.891-1.412-2.25-1.6-5.041-.518-7.451l10.543-23.708-26.123-26.1-23.723 10.529c-2.401 1.068-5.178.89-7.437-.499-12.991-7.992-27.065-13.843-41.891-17.364-2.542-.607-4.66-2.447-5.601-4.909l-9.319-24.198h-36.902l-9.32 24.198c-.941 2.462-3.06 4.302-5.601 4.909-14.827 3.521-28.9 9.372-41.891 17.364-2.26 1.389-5.036 1.567-7.437.499l-23.723-10.529-26.123 26.1 10.543 23.718c1.083 2.41.894 5.201-.518 7.441-8.002 12.991-13.838 27.088-17.321 41.891-.612 2.57-2.447 4.669-4.942 5.606l-24.193 9.324v36.907l24.193 9.32c2.495.941 4.284 3.041 4.895 5.611 3.53 14.812 9.367 28.91 17.368 41.891 1.412 2.25 1.6 5.041.518 7.451l-10.543 23.709 26.123 26.1 23.723-10.529c2.401-1.069 5.177-.89 7.437.499 12.991 8.002 27.064 13.838 41.891 17.364 2.542.607 4.66 2.447 5.601 4.904l9.32 24.203h36.902l9.319-24.189c.941-2.471 3.06-4.302 5.601-4.914 14.827-3.53 28.9-9.367 41.891-17.368 2.259-1.379 5.036-1.568 7.484-.499l23.676 10.529 26.123-26.1-10.543-23.718c-1.083-2.41-.894-5.201.518-7.441 8.002-13.001 13.838-27.088 17.368-41.891.612-2.561 2.448-4.66 4.895-5.611zm10.873-49.869-25.464-9.8c-3.624-13.589-8.99-26.608-16.05-38.799l11.061-24.942c1.365-3.031.706-6.566-1.647-8.91l-29.606-29.578c.047-.071.141-.132.188-.212 1.506-2.382 1.647-5.3.424-7.837-2.448-4.98-5.084-9.889-7.908-14.662-3.107-5.13-10.496-5.187-13.697-.089-1.553 2.579-1.553 5.719-.047 8.308 1.883 3.172 3.671 6.392 5.366 9.663l-22.452 9.969c-12.191-7.07-25.229-12.459-38.785-16.088l-9.79-25.45c-1.224-3.093-4.189-5.131-7.484-5.131h-47.916c-3.295 0-6.26 2.038-7.437 5.131l-9.837 25.45c-13.556 3.629-26.594 9.018-38.785 16.088l-24.947-11.08c-3.012-1.351-6.542-.692-8.896 1.652l-33.89 33.866c-2.306 2.344-2.965 5.879-1.647 8.91l11.108 24.942c-7.06 12.2-12.473 25.21-16.097 38.799l-25.464 9.8c-3.06 1.191-5.131 4.161-5.131 7.47v47.902c0 3.309 2.071 6.27 5.131 7.461l25.464 9.8c3.624 13.598 9.037 26.608 16.097 38.799l-9.979 22.381-1.742-.842c-5.789-2.999-12.473 1.713-11.626 8.161.612 4.721 4.378 6.161 8.143 8.063l11.061 5.126c1.459.603 2.918.739 4.283.541l24.287 24.288c2.354 2.344 5.884 3.003 8.896 1.652l24.947-11.08c12.191 7.07 25.229 12.469 38.785 16.093l9.837 25.445c1.177 3.092 4.142 5.13 7.437 5.13h47.916c3.295 0 6.26-2.038 7.484-5.13l9.79-25.445c13.556-3.624 26.594-9.014 38.785-16.083l24.947 11.071c3.012 1.351 6.542.692 8.896-1.652l33.889-33.866c2.354-2.344 3.012-5.884 1.647-8.91l-11.108-24.951c7.107-12.191 12.473-25.201 16.097-38.79l25.464-9.8c3.107-1.191 5.131-4.151 5.131-7.461v-47.911c.002-3.31-2.022-6.271-5.129-7.462zm-355.84-201.247c0-4.33 3.53-7.851 7.86-7.851 4.331 0 7.861 3.521 7.861 7.851s-3.53 7.847-7.861 7.847c-4.33-.001-7.86-3.517-7.86-7.847zm31.724 0c0-13.151-10.732-23.849-23.864-23.849-13.179 0-23.864 10.698-23.864 23.849s10.685 23.85 23.864 23.85c13.133-.001 23.864-10.699 23.864-23.85zm-63.072 0c0 21.6 17.604 39.18 39.208 39.18 21.605 0 39.161-17.58 39.161-39.18 0-21.614-17.557-39.189-39.161-39.189-21.604-.001-39.208 17.575-39.208 39.189zm94.373 0c0 30.43-24.758 55.179-55.165 55.179-30.453 0-55.211-24.749-55.211-55.179s24.758-55.193 55.211-55.193c30.407 0 55.165 24.763 55.165 55.193zm-112.73 260.125c1.647 2.984 1.271 6.641-.989 9.202-3.671 4.128-10.261 3.441-12.944-1.379l-7.531-14.859c-1.977-4.401.236-9.47 4.848-10.948 3.86-1.233 8.002.607 9.696 4.288zm-23.581-49.699c-4.754 3.582-11.626.913-12.708-4.947l-2.212-16.512c-.329-3.106 1.177-6.03 3.813-7.639 5.083-2.989 11.485.24 12.097 6.091l2.071 15.189c.516 3.002-.613 5.963-3.061 7.818zm308.253-195.477c2.918-1.638 6.543-1.318 9.132.871 4.189 3.601 8.284 7.366 12.191 11.306 3.53 3.554 3.012 9.353-1.083 12.233-3.201 2.208-7.484 1.807-10.214-.918-3.624-3.634-7.39-7.112-11.249-10.43-4.236-3.625-3.625-10.295 1.223-13.062zm-244.051 300.271c-1.13 6.199-8.472 8.769-13.226 4.608l-11.909-11.668c-2.212-2.382-2.777-5.78-1.459-8.759 2.353-5.211 9.178-6.359 13.085-2.222l7.766 7.748c3.154 2.992 6.637 5.261 5.743 10.293zm-59.024-188.751c-1.177 4.999-2.165 9.988-2.918 15.062-.424 2.716-2.165 4.975-4.66 6.11-5.789 2.556-12.097-2.255-11.155-8.501.8-5.512 1.883-10.934 3.154-16.352.612-2.561 2.353-4.57 4.801-5.568 6.024-2.42 12.237 2.918 10.778 9.249zm244.71-135.299c-1.694-6.369 4.518-11.941 10.637-9.56 5.178 2.047 10.261 4.297 15.25 6.759 2.918 1.468 4.66 4.5 4.425 7.79-.471 5.662-6.402 9.061-11.532 6.571-4.566-2.273-9.226-4.349-13.98-6.232-2.399-.932-4.094-2.881-4.8-5.328zm-293.756 8.83c29.512-39.152 75.828-62.362 125.014-62.362 49.14 0 95.456 23.21 124.968 62.361-29.512 39.147-75.828 62.347-124.968 62.347-49.186.001-95.502-23.199-125.014-62.346zm50.928 76.086c2.024-3.93 4.236-7.78 6.542-11.555-29.324-12.511-55.117-33.075-73.898-59.951-1.93-2.754-1.93-6.411 0-9.174 32.29-46.189 85.148-73.766 141.442-73.766 43.963 0 85.901 16.846 117.531 46.269 4.519.282 9.037.692 13.603 1.271 2.871.391 5.272 2.231 6.354 4.919 1.742 4.311-.518 8.83-4.377 10.421 2.918 3.507 5.695 7.131 8.331 10.887 1.93 2.763 1.93 6.42 0 9.174-32.289 46.198-85.195 73.771-141.442 73.771-17.933 0-35.537-2.81-52.246-8.133-2.73 4.321-5.272 8.731-7.672 13.259-1.318 2.513-3.766 4.09-6.59 4.292-6.213.371-10.449-6.144-7.578-11.684z" fill="#242222"/></g></svg>